<svg xmlns="http://www.w3.org/2000/svg" width="194" height="194" viewBox="0 0 72 72"><path fill="#ea5a47" d="M24.488 52.117c-.544 2.69-.44 4.994.305 6.66c2.054 4.6 7.465 6.677 12.07 4.62a9.07 9.07 0 0 0 4.809-5.078a9.08 9.08 0 0 0-.19-6.992c-1.097-2.459-2.47-4.353-5.066-5.103c-.31-.09-.04-1.131.084-1.427l.84-2.813l-7.6-2.53c-3.42 7.73-5.104 11.923-5.252 12.663m10.032-2.005a4.68 4.68 0 0 1 2.938 2.083a4.68 4.68 0 0 1 .602 3.551a4.68 4.68 0 0 1-2.083 2.938a4.68 4.68 0 0 1-3.551.602a4.68 4.68 0 0 1-2.938-2.084a4.68 4.68 0 0 1-.602-3.55a4.67 4.67 0 0 1 2.084-2.938a4.68 4.68 0 0 1 3.55-.602"/><path fill="#d0cfce" d="m37.009 42.077l12.133-30.044c-2.187.695-4.555 1.24-6.5 3.213c-2.443 2.48-4.225 6.392-4.225 6.392s-7.584 16.522-7.952 17.344c-.014.03 6.544 3.095 6.544 3.095"/><path fill="#9b9b9a" d="M61.011 24.5s-15.29 5.18-14.812 4.951l-.004-.004l-3.946 1.648l-5.136 12.966l5.709-2.744l.001-.015c-.102.034 9.415-5.642 9.589-5.731c4.024-2.078 7.027-6.144 8.6-11.07"/><path fill="#d22f27" d="M21.833 32.884c-4.082-1.822-10.4.207-12.222 4.288c-1.823 4.083-.179 10.431 3.903 12.254c1.478.66 3.943 1.056 6.33.573c.103-.02 3.367-.227 2.978.026l2.285-1.063c1.178-2.972 4.716-11.343 5.006-11.988l-2.738 1.313l-.006.012c-.018.284-3.478-4.495-5.536-5.415m-.249 10.35a4.5 4.5 0 0 1-2.837 2.013a4.55 4.55 0 0 1-5.442-3.419a4.5 4.5 0 0 1 .582-3.43a4.5 4.5 0 0 1 2.837-2.011a4.52 4.52 0 0 1 3.43.581a4.5 4.5 0 0 1 2.012 2.837a4.5 4.5 0 0 1-.582 3.43"/><g fill="none" stroke="#000" stroke-linecap="round" stroke-linejoin="round" stroke-miterlimit="10" stroke-width="2"><path d="M29.584 39.621c3.058-6.88 6.652-14.644 7.8-16.865c2.07-4.012 5.733-10.19 12.54-11.194l-12.66 30.554"/><path d="M41.462 50.976a9.08 9.08 0 0 0-5.791-5.034l1.593-3.826l-7.68-2.495c-2.506 5.64-4.88 11.216-5.092 12.265c-.362 1.787-.617 4.374.338 6.513a9.107 9.107 0 0 0 16.632-7.423m-3.55 4.736a4.553 4.553 0 1 1-8.878-2.027a4.553 4.553 0 0 1 8.878 2.027M26.373 38.238a9.08 9.08 0 0 0-4.915-5.41a9.107 9.107 0 0 0-7.423 16.632c2.14.955 4.726.7 6.513.338c.293-.059.898-.27 1.742-.597m-3.541-3.945a4.553 4.553 0 1 1-2.027-8.878a4.553 4.553 0 0 1 2.027 8.878m27.876-14.909l14.247-5.982c-1.004 6.808-7.182 10.47-11.194 12.542c-1.312.677-3.311 1.693-7.165 3.463"/></g></svg>